<svg width="122" height="122" viewBox="0 0 122 122" fill="none" xmlns="http://www.w3.org/2000/svg">
<mask id="mask0_29267_12028" style="mask-type:alpha" maskUnits="userSpaceOnUse" x="0" y="0" width="122" height="122">
<path d="M122 61C122 94.6894 94.6894 122 61 122C27.3106 122 0 94.6894 0 61C0 27.3106 27.3106 0 61 0C94.6894 0 122 27.3106 122 61Z" fill="#70ACDE"/>
</mask>
<g mask="url(#mask0_29267_12028)">
<circle cx="60.8703" cy="61.1447" r="61.0001" fill="#CDE7FF"/>
<circle cx="60.8703" cy="61.1447" r="61.0001" fill="url(#paint0_linear_29267_12028)" fill-opacity="0.1"/>
<path d="M-0.792655 5.89962C15.0207 -7.91443 37.5344 -8.01537 49.493 5.67396C58.3507 15.8137 58.9325 30.6751 52.2126 43.3143C52.0923 43.5406 52.1273 43.8186 52.2959 44.0116C58.2007 50.7711 56.6577 61.7803 48.8495 68.6013C41.0412 75.4223 29.9247 75.4722 24.0198 68.7128C22.4723 66.9414 20.2507 65.6989 17.9025 65.8367C8.08314 66.4128 -1.36135 63.0378 -7.77231 55.699C-19.7308 42.0096 -16.606 19.7137 -0.792655 5.89962Z" fill="#DAF5EB"/>
<path d="M89.318 16.5418C96.3641 15.0258 103.14 18.7416 104.452 24.8413C105.765 30.941 101.117 37.1147 94.0706 38.6308C93.0109 38.8588 91.9573 38.9684 90.9275 38.9694C88.6188 38.9717 86.2832 39.5054 84.0913 40.2305C80.7871 41.3235 77.2484 40.633 75.0802 38.1511C72.0536 34.6864 72.8444 29.0433 76.8467 25.5471C77.0182 25.3972 77.1928 25.2538 77.3702 25.1167C78.7972 24.0144 80.1412 22.7517 81.2784 21.3524C83.1614 19.0353 85.9688 17.2624 89.318 16.5418Z" fill="#DAF5EB"/>
<path d="M77.6946 65.6369C86.1222 63.8236 94.4443 69.2799 96.2826 77.824C96.2838 77.8295 96.2871 77.8343 96.2919 77.8372C99.4492 79.7121 101.78 82.6787 102.566 86.3299C103.775 91.9518 100.978 97.601 95.9544 100.843C95.9304 100.859 95.9332 100.895 95.9594 100.907C95.9861 100.918 96.0023 100.947 95.9773 100.962C94.7359 101.697 68.6375 116.923 54.172 105.143C51.5578 103.266 49.6547 100.573 48.96 97.3442C47.3456 89.8408 52.8687 82.2881 61.2962 80.4748C61.3138 80.4711 61.3314 80.4673 61.3489 80.4636C63.5874 79.989 65.4778 78.2373 66.1905 76.0629C67.8687 70.9423 72.1021 66.8402 77.6946 65.6369Z" fill="#DAF5EB"/>
<path d="M45.1154 39.0516C45.1154 40.7478 43.7404 42.1228 42.0442 42.1228C40.348 42.1228 38.973 40.7478 38.973 39.0516C38.973 37.3555 40.348 35.9805 42.0442 35.9805C43.7404 35.9805 45.1154 37.3555 45.1154 39.0516Z" fill="#9297A3"/>
<path d="M65.6588 39.0516C65.6588 40.7478 64.2838 42.1228 62.5877 42.1228C60.8915 42.1228 59.5165 40.7478 59.5165 39.0516C59.5165 37.3555 60.8915 35.9805 62.5877 35.9805C64.2838 35.9805 65.6588 37.3555 65.6588 39.0516Z" fill="#9297A3"/>
<path d="M57.9074 51.8801C58.9645 52.3967 60.2523 51.9987 60.8282 50.9576C61.4042 49.9164 61.0569 48.614 60.0575 47.9931L59.9587 47.9352C52.9308 44.0476 46.1793 46.1836 43.3923 47.9364L43.2626 48.0196L43.1683 48.0847C42.2174 48.7776 41.9669 50.1021 42.6179 51.098C43.269 52.094 44.583 52.3961 45.5991 51.8029L45.6963 51.7427L45.7785 51.6902C47.5533 50.5785 52.5464 48.9178 57.8059 51.8271L57.9074 51.8801Z" fill="#9297A3"/>
<path d="M71.0228 47.1447C69.4331 46.3171 68.6344 44.476 67.9559 42.1451C67.8637 41.8282 68.1032 41.5125 68.4331 41.5225C69.9892 41.5696 73.3566 41.8687 74.2678 43.7661C75.3495 46.0185 73.1862 48.2709 71.0228 47.1447Z" fill="#94BDF6"/>
</g>
<defs>
<linearGradient id="paint0_linear_29267_12028" x1="51.4909" y1="28.6718" x2="96.9988" y2="108.141" gradientUnits="userSpaceOnUse">
<stop stop-color="white"/>
<stop offset="1" stop-color="#2887D7"/>
</linearGradient>
</defs>
</svg>
