<svg width="145" height="145" viewBox="0 0 145 145" fill="none" xmlns="http://www.w3.org/2000/svg">
<mask id="mask0_29267_12471" style="mask-type:alpha" maskUnits="userSpaceOnUse" x="0" y="0" width="145" height="145">
<path d="M144.5 72.8594C144.5 112.624 112.265 144.859 72.5 144.859C32.7355 144.859 0.5 112.624 0.5 72.8594C0.5 33.0949 32.7355 0.859375 72.5 0.859375C112.265 0.859375 144.5 33.0949 144.5 72.8594Z" fill="#70ACDE"/>
</mask>
<g mask="url(#mask0_29267_12471)">
<circle cx="72.3468" cy="73.0295" r="72.0002" fill="#70ACDE"/>
<circle cx="72.3468" cy="73.0295" r="72.0002" fill="url(#paint0_linear_29267_12471)" fill-opacity="0.2"/>
<path d="M-0.435658 7.82286C18.2293 -8.48225 44.8028 -8.60139 58.9179 7.5565C69.3729 19.5248 70.0596 37.0661 62.1279 51.9844C61.9859 52.2515 62.0272 52.5797 62.2262 52.8075C69.1959 60.7859 67.3746 73.7804 58.1583 81.8314C48.9421 89.8824 35.8208 89.9414 28.8512 81.963C27.0247 79.8721 24.4024 78.4056 21.6308 78.5682C10.0407 79.2482 -1.1069 75.2646 -8.67394 66.6024C-22.7889 50.4445 -19.1005 24.1279 -0.435658 7.82286Z" fill="#99E587"/>
<path d="M105.925 20.3841C114.241 18.5948 122.239 22.9806 123.788 30.1803C125.337 37.3799 119.851 44.667 111.534 46.4564C110.283 46.7255 109.04 46.8549 107.824 46.8561C105.099 46.8587 102.343 47.4887 99.7554 48.3445C95.8552 49.6347 91.6784 48.8196 89.1193 45.8902C85.5469 41.8008 86.4803 35.14 91.2043 31.0133C91.4067 30.8364 91.6129 30.6671 91.8223 30.5054C93.5066 29.2043 95.0929 27.7139 96.4352 26.0622C98.6578 23.3273 101.971 21.2347 105.925 20.3841Z" fill="#99E587"/>
<path d="M92.2047 78.3324C102.152 76.1922 111.975 82.6324 114.145 92.7172C114.146 92.7237 114.15 92.7293 114.156 92.7327C117.882 94.9458 120.633 98.4474 121.561 102.757C122.988 109.393 119.687 116.061 113.757 119.888C113.729 119.906 113.732 119.949 113.763 119.962C113.795 119.976 113.814 120.01 113.784 120.027C112.319 120.896 81.5143 138.866 64.4403 124.962C61.3547 122.747 59.1083 119.568 58.2884 115.757C56.3828 106.901 62.902 97.9863 72.8492 95.8461C72.8699 95.8416 72.8906 95.8372 72.9114 95.8328C75.5535 95.2726 77.7848 93.205 78.626 90.6385C80.6068 84.5946 85.6037 79.7527 92.2047 78.3324Z" fill="#99E587"/>
<path d="M53.751 46.9531C53.751 48.9552 52.128 50.5781 50.126 50.5781C48.1239 50.5781 46.501 48.9552 46.501 46.9531C46.501 44.9511 48.1239 43.3281 50.126 43.3281C52.128 43.3281 53.751 44.9511 53.751 46.9531Z" fill="#202020"/>
<path d="M77.999 46.9531C77.999 48.9552 76.3761 50.5781 74.374 50.5781C72.372 50.5781 70.749 48.9552 70.749 46.9531C70.749 44.9511 72.372 43.3281 74.374 43.3281C76.3761 43.3281 77.999 44.9511 77.999 46.9531Z" fill="#202020"/>
<path d="M68.8502 55.1254C70.0979 54.5157 71.6179 54.9854 72.2977 56.2143C72.9775 57.4432 72.5676 58.9804 71.388 59.7133L71.2713 59.7817C62.9761 64.3703 55.0071 61.8491 51.7176 59.7802L51.5645 59.6821L51.4532 59.6052C50.3308 58.7874 50.0352 57.224 50.8036 56.0485C51.5721 54.873 53.123 54.5164 54.3224 55.2165L54.4371 55.2875L54.534 55.3495C56.6289 56.6618 62.5225 58.6219 68.7303 55.1879L68.8502 55.1254Z" fill="#202020"/>
</g>
<defs>
<linearGradient id="paint0_linear_29267_12471" x1="61.2762" y1="34.7009" x2="114.99" y2="128.5" gradientUnits="userSpaceOnUse">
<stop stop-color="white"/>
<stop offset="1" stop-color="#2887D7"/>
</linearGradient>
</defs>
</svg>
